<svg width="37" height="37" viewBox="0 0 37 37" fill="none" xmlns="http://www.w3.org/2000/svg">
<circle cx="18.45" cy="18.5" r="17.95" fill="white" stroke="#55ACEE"/>
<g clip-path="url(#clip0_484_5)">
<path d="M31.4335 10.1461C30.4611 10.5765 29.4297 10.8591 28.3737 10.9843C29.4737 10.3255 30.3183 9.28224 30.716 8.03921C29.6703 8.65929 28.5262 9.09617 27.3332 9.33099C26.3613 8.29645 24.9769 7.6499 23.4446 7.6499C20.5024 7.6499 18.117 10.0334 18.117 12.9731C18.117 13.3904 18.1642 13.7966 18.255 14.1863C13.8275 13.9643 9.90203 11.845 7.27442 8.62434C6.81595 9.41055 6.55324 10.3251 6.55324 11.3005C6.55324 13.1474 7.49382 14.7767 8.9232 15.7314C8.07721 15.7049 7.24982 15.4766 6.51013 15.0655C6.50983 15.0878 6.50983 15.1101 6.50983 15.1325C6.50983 17.7117 8.34616 19.8633 10.7832 20.3523C9.99868 20.5655 9.1758 20.5967 8.3774 20.4435C9.05527 22.5584 11.0228 24.0974 13.3539 24.1405C11.5306 25.5682 9.23349 26.4192 6.73764 26.4192C6.30757 26.4192 5.88358 26.394 5.4668 26.3449C7.82439 27.8553 10.6246 28.7365 13.6331 28.7365C23.4322 28.7365 28.7905 20.6249 28.7905 13.5905C28.7905 13.3596 28.7855 13.13 28.7751 12.9017C29.8181 12.1484 30.7183 11.2152 31.4335 10.1461Z" fill="#55ACEE"/>
</g>
<defs>
<clipPath id="clip0_484_5">
<rect width="25.9667" height="21.1833" fill="white" transform="translate(5.4668 7.56665)"/>
</clipPath>
</defs>
</svg>
